<svg width="24" height="25" viewBox="0 0 24 25" fill="none" xmlns="http://www.w3.org/2000/svg">
<circle cx="12" cy="12.9244" r="12" fill="white"/>
<mask id="mask0_2026_268" style="mask-type:luminance" maskUnits="userSpaceOnUse" x="3" y="3" width="18" height="19">
<rect x="3" y="3.92444" width="18" height="18" fill="white"/>
</mask>
<g mask="url(#mask0_2026_268)">
<path fill-rule="evenodd" clip-rule="evenodd" d="M19.3541 11.4556H18.75V11.4244H12V14.4244H16.2386C15.6203 16.1708 13.9586 17.4244 12 17.4244C9.51488 17.4244 7.5 15.4096 7.5 12.9244C7.5 10.4393 9.51488 8.42444 12 8.42444C13.1471 8.42444 14.1908 8.85719 14.9854 9.56406L17.1067 7.44269C15.7673 6.19431 13.9755 5.42444 12 5.42444C7.85813 5.42444 4.5 8.78256 4.5 12.9244C4.5 17.0663 7.85813 20.4244 12 20.4244C16.1419 20.4244 19.5 17.0663 19.5 12.9244C19.5 12.4216 19.4482 11.9307 19.3541 11.4556Z" fill="#FFC107"/>
<path fill-rule="evenodd" clip-rule="evenodd" d="M5.36475 9.43356L7.82887 11.2407C8.49562 9.58994 10.1104 8.42444 12 8.42444C13.1471 8.42444 14.1907 8.85719 14.9854 9.56406L17.1067 7.44269C15.7672 6.19431 13.9755 5.42444 12 5.42444C9.11925 5.42444 6.621 7.05081 5.36475 9.43356Z" fill="#FF3D00"/>
<path fill-rule="evenodd" clip-rule="evenodd" d="M11.9999 20.4247C13.9371 20.4247 15.6974 19.6833 17.0282 18.4777L14.707 16.5134C13.954 17.0838 13.018 17.4247 11.9999 17.4247C10.0491 17.4247 8.39275 16.1808 7.76875 14.4449L5.323 16.3293C6.56425 18.7582 9.085 20.4247 11.9999 20.4247Z" fill="#4CAF50"/>
<path fill-rule="evenodd" clip-rule="evenodd" d="M19.3541 11.4556H18.75V11.4244H12V14.4244H16.2386C15.9416 15.2633 15.402 15.9867 14.706 16.5136C14.7064 16.5132 14.7068 16.5132 14.7071 16.5128L17.0284 18.4771C16.8641 18.6263 19.5 16.6744 19.5 12.9244C19.5 12.4216 19.4482 11.9307 19.3541 11.4556Z" fill="#1976D2"/>
</g>
</svg>
